<svg width="1280" height="640" viewBox="0 0 1280 640" fill="none" xmlns="http://www.w3.org/2000/svg">
  <defs>
    <linearGradient id="bg" x1="164" y1="26" x2="1111" y2="640" gradientUnits="userSpaceOnUse">
      <stop stop-color="#173449"/>
      <stop offset="0.5" stop-color="#0D1B26"/>
      <stop offset="1" stop-color="#091017"/>
    </linearGradient>
    <linearGradient id="accent" x1="251" y1="124" x2="874" y2="569" gradientUnits="userSpaceOnUse">
      <stop stop-color="#FFBC57"/>
      <stop offset="1" stop-color="#FF8A3D"/>
    </linearGradient>
    <linearGradient id="cyan" x1="761" y1="125" x2="1126" y2="416" gradientUnits="userSpaceOnUse">
      <stop stop-color="#77EFF2"/>
      <stop offset="1" stop-color="#2BAAB2"/>
    </linearGradient>
    <filter id="blur" x="0" y="0" width="1280" height="640" filterUnits="userSpaceOnUse" color-interpolation-filters="sRGB">
      <feGaussianBlur stdDeviation="40"/>
    </filter>
  </defs>
  <rect width="1280" height="640" rx="36" fill="url(#bg)"/>
  <circle cx="202" cy="131" r="110" fill="#FFBC57" fill-opacity="0.15" filter="url(#blur)"/>
  <circle cx="1061" cy="115" r="120" fill="#4FD3DB" fill-opacity="0.14" filter="url(#blur)"/>
  <rect x="52" y="52" width="1176" height="536" rx="28" stroke="white" stroke-opacity="0.08"/>
  <text x="96" y="118" fill="#FFBC57" font-family="Trebuchet MS, sans-serif" font-size="22" letter-spacing="8">BOUTIQUE BARISTA SIM</text>
  <text x="96" y="222" fill="#F1F7FA" font-family="Gill Sans, Trebuchet MS, sans-serif" font-size="88" font-weight="700">CoffeeShop</text>
  <text x="96" y="290" fill="#A8BEC8" font-family="Trebuchet MS, sans-serif" font-size="32">Habbo-inspired isometric coffee game with modern presentation</text>

  <rect x="96" y="352" width="224" height="74" rx="20" fill="url(#accent)"/>
  <text x="132" y="398" fill="#261307" font-family="Gill Sans, Trebuchet MS, sans-serif" font-size="30" font-weight="700">Play The Shift</text>

  <rect x="346" y="352" width="242" height="74" rx="20" fill="#13232F" stroke="white" stroke-opacity="0.08"/>
  <text x="384" y="397" fill="#F1F7FA" font-family="Gill Sans, Trebuchet MS, sans-serif" font-size="29" font-weight="700">Craft Real Recipes</text>

  <g transform="translate(690 154)">
    <polygon points="0,150 160,230 0,310 -160,230" fill="#2E5065"/>
    <polygon points="0,196 112,252 0,308 -112,252" fill="#29485A"/>
    <polygon points="-160,230 0,310 0,420 -160,340" fill="#1B2D3A"/>
    <polygon points="160,230 0,310 0,420 160,340" fill="#243D4D"/>
    <polygon points="0,310 112,366 0,422 -112,366" fill="#365B70"/>

    <polygon points="-80,116 10,160 -80,206 -170,160" fill="#8B664D"/>
    <polygon points="-80,206 10,160 10,64 -80,110" fill="#A37A5D"/>
    <polygon points="-170,160 -80,206 -80,110 -170,64" fill="#6F523F"/>

    <polygon points="70,132 150,172 70,212 -10,172" fill="#5C7280"/>
    <polygon points="70,212 150,172 150,90 70,128" fill="#728A98"/>
    <polygon points="-10,172 70,212 70,128 -10,90" fill="#475A65"/>
    <rect x="44" y="112" width="52" height="14" fill="#F3F7FB"/>
    <rect x="50" y="132" width="40" height="8" fill="#231913"/>

    <polygon points="178,214 250,250 178,286 106,250" fill="#6D8391"/>
    <polygon points="178,286 250,250 250,176 178,208" fill="#89A0AC"/>
    <polygon points="106,250 178,286 178,208 106,176" fill="#51636E"/>
    <line x1="200" y1="150" x2="216" y2="102" stroke="#DDFBFF" stroke-width="5"/>

    <ellipse cx="18" cy="255" rx="28" ry="12" fill="black" fill-opacity="0.18"/>
    <rect x="2" y="191" width="14" height="44" fill="#24384B"/>
    <rect x="22" y="191" width="14" height="44" fill="#24384B"/>
    <rect x="-4" y="143" width="46" height="48" fill="#FFBC57"/>
    <rect x="-8" y="147" width="8" height="28" fill="#D5A07E"/>
    <rect x="38" y="147" width="8" height="28" fill="#D5A07E"/>
    <rect x="6" y="148" width="26" height="40" fill="#F2F5FA"/>
    <rect x="-4" y="99" width="46" height="40" fill="#D5A07E"/>
    <rect x="-4" y="91" width="46" height="18" fill="#23170F"/>
    <rect x="9" y="113" width="5" height="5" fill="#1F1B18"/>
    <rect x="25" y="113" width="5" height="5" fill="#1F1B18"/>
    <rect x="11" y="126" width="18" height="4" fill="#FF8A3D"/>
  </g>

  <rect x="866" y="454" width="282" height="88" rx="22" fill="#0F1D27" stroke="white" stroke-opacity="0.06"/>
  <text x="900" y="496" fill="#A8BEC8" font-family="Trebuchet MS, sans-serif" font-size="24">Queue</text>
  <text x="1011" y="496" fill="#F1F7FA" font-family="Gill Sans, Trebuchet MS, sans-serif" font-size="34" font-weight="700">Rush Hour</text>
  <rect x="900" y="512" width="214" height="10" rx="5" fill="#1C313F"/>
  <rect x="900" y="512" width="158" height="10" rx="5" fill="url(#cyan)"/>
</svg>
