<svg width="1280" height="900" viewBox="0 0 1280 900" fill="none" xmlns="http://www.w3.org/2000/svg">
  <defs>
    <linearGradient id="bg" x1="640" y1="0" x2="640" y2="900" gradientUnits="userSpaceOnUse">
      <stop stop-color="#1A3042"/>
      <stop offset="0.45" stop-color="#10202D"/>
      <stop offset="1" stop-color="#0A1117"/>
    </linearGradient>
    <linearGradient id="panel" x1="0" y1="0" x2="1" y2="1">
      <stop stop-color="#162734" stop-opacity="0.94"/>
      <stop offset="1" stop-color="#0C141B" stop-opacity="0.98"/>
    </linearGradient>
    <linearGradient id="gold" x1="0" y1="0" x2="1" y2="1">
      <stop stop-color="#FFBC57"/>
      <stop offset="1" stop-color="#FF8A3D"/>
    </linearGradient>
  </defs>
  <rect width="1280" height="900" rx="34" fill="url(#bg)"/>

  <rect x="30" y="30" width="270" height="840" rx="28" fill="url(#panel)" stroke="white" stroke-opacity="0.08"/>
  <text x="62" y="82" fill="#FFBC57" font-family="Trebuchet MS, sans-serif" font-size="18" letter-spacing="5">BOUTIQUE BARISTA SIM</text>
  <text x="62" y="140" fill="#F1F7FA" font-family="Gill Sans, Trebuchet MS, sans-serif" font-size="56" font-weight="700">Velvet Pour</text>
  <text x="62" y="184" fill="#9AB1BC" font-family="Trebuchet MS, sans-serif" font-size="22">Own the room. Work the line.</text>

  <rect x="62" y="236" width="84" height="84" rx="18" fill="#111E28" stroke="white" stroke-opacity="0.06"/>
  <rect x="154" y="236" width="84" height="84" rx="18" fill="#111E28" stroke="white" stroke-opacity="0.06"/>
  <rect x="62" y="330" width="84" height="84" rx="18" fill="#111E28" stroke="white" stroke-opacity="0.06"/>
  <rect x="154" y="330" width="84" height="84" rx="18" fill="#111E28" stroke="white" stroke-opacity="0.06"/>
  <text x="84" y="276" fill="#9AB1BC" font-family="Trebuchet MS, sans-serif" font-size="16">Score</text>
  <text x="78" y="302" fill="#F1F7FA" font-family="Gill Sans, Trebuchet MS, sans-serif" font-size="26" font-weight="700">1840</text>
  <text x="177" y="276" fill="#9AB1BC" font-family="Trebuchet MS, sans-serif" font-size="16">Coins</text>
  <text x="177" y="302" fill="#F1F7FA" font-family="Gill Sans, Trebuchet MS, sans-serif" font-size="26" font-weight="700">127</text>
  <text x="82" y="370" fill="#9AB1BC" font-family="Trebuchet MS, sans-serif" font-size="16">Rep</text>
  <text x="79" y="396" fill="#F1F7FA" font-family="Gill Sans, Trebuchet MS, sans-serif" font-size="26" font-weight="700">94</text>
  <text x="177" y="370" fill="#9AB1BC" font-family="Trebuchet MS, sans-serif" font-size="16">Shift</text>
  <text x="169" y="396" fill="#F1F7FA" font-family="Gill Sans, Trebuchet MS, sans-serif" font-size="26" font-weight="700">00:48</text>

  <rect x="330" y="30" width="620" height="840" rx="28" fill="#0E1A23" stroke="white" stroke-opacity="0.08"/>
  <rect x="970" y="30" width="280" height="840" rx="28" fill="url(#panel)" stroke="white" stroke-opacity="0.08"/>

  <g transform="translate(640 168)">
    <polygon points="0,90 94,137 0,184 -94,137" fill="#315468"/>
    <polygon points="94,137 188,184 94,231 0,184" fill="#29485A"/>
    <polygon points="188,184 282,231 188,278 94,231" fill="#315468"/>
    <polygon points="-94,137 0,184 -94,231 -188,184" fill="#29485A"/>
    <polygon points="0,184 94,231 0,278 -94,231" fill="#315468"/>
    <polygon points="94,231 188,278 94,325 0,278" fill="#29485A"/>
    <polygon points="-188,184 -94,231 -188,278 -282,231" fill="#315468"/>
    <polygon points="-94,231 0,278 -94,325 -188,278" fill="#29485A"/>
    <polygon points="0,278 94,325 0,372 -94,325" fill="#315468"/>
    <polygon points="94,325 188,372 94,419 0,372" fill="#29485A"/>

    <polygon points="-200,78 -110,123 -200,168 -290,123" fill="#8B664D"/>
    <polygon points="-200,168 -110,123 -110,44 -200,89" fill="#A37A5D"/>
    <polygon points="-290,123 -200,168 -200,89 -290,44" fill="#6E523F"/>

    <polygon points="-120,188 -44,226 -120,264 -196,226" fill="#60717C"/>
    <polygon points="-120,264 -44,226 -44,146 -120,182" fill="#798E9A"/>
    <polygon points="-196,226 -120,264 -120,182 -196,146" fill="#4B5B64"/>

    <polygon points="42,124 122,164 42,204 -38,164" fill="#865947"/>
    <polygon points="42,204 122,164 122,84 42,122" fill="#A26E58"/>
    <polygon points="-38,164 42,204 42,122 -38,84" fill="#714B3B"/>
    <rect x="14" y="108" width="56" height="14" fill="#F2F7FC"/>
    <rect x="20" y="128" width="44" height="8" fill="#201913"/>

    <polygon points="206,144 284,183 206,222 128,183" fill="#6C808F"/>
    <polygon points="206,222 284,183 284,106 206,142" fill="#8BA0AC"/>
    <polygon points="128,183 206,222 206,142 128,106" fill="#51606A"/>
    <line x1="228" y1="96" x2="244" y2="48" stroke="#DDFBFF" stroke-width="5"/>

    <polygon points="210,312 284,349 210,386 136,349" fill="#84585E"/>
    <polygon points="210,386 284,349 284,272 210,308" fill="#9E6C73"/>
    <polygon points="136,349 210,386 210,308 136,272" fill="#654349"/>

    <polygon points="40,372 116,410 40,448 -36,410" fill="#68735F"/>
    <polygon points="40,448 116,410 116,336 40,372" fill="#83907A"/>
    <polygon points="-36,410 40,448 40,372 -36,336" fill="#4F5648"/>

    <polygon points="-40,452 54,499 -40,546 -134,499" fill="#846851"/>
    <polygon points="-40,546 54,499 54,418 -40,462" fill="#A18167"/>
    <polygon points="-134,499 -40,546 -40,462 -134,418" fill="#65503F"/>

    <ellipse cx="-12" cy="310" rx="26" ry="11" fill="black" fill-opacity="0.18"/>
    <rect x="-26" y="248" width="12" height="42" fill="#24384B"/>
    <rect x="-8" y="248" width="12" height="42" fill="#24384B"/>
    <rect x="-32" y="205" width="42" height="43" fill="#FFBC57"/>
    <rect x="-36" y="208" width="7" height="24" fill="#D5A07E"/>
    <rect x="9" y="208" width="7" height="24" fill="#D5A07E"/>
    <rect x="-22" y="210" width="22" height="34" fill="#F2F5FA"/>
    <rect x="-31" y="168" width="43" height="35" fill="#D5A07E"/>
    <rect x="-31" y="160" width="43" height="16" fill="#23170F"/>

    <ellipse cx="-28" cy="560" rx="30" ry="12" fill="black" fill-opacity="0.16"/>
    <rect x="-43" y="495" width="13" height="45" fill="#355F74"/>
    <rect x="-22" y="495" width="13" height="45" fill="#355F74"/>
    <rect x="-49" y="450" width="45" height="45" fill="#FF8B64"/>
    <rect x="-53" y="454" width="7" height="26" fill="#F1C7A7"/>
    <rect x="-2" y="454" width="7" height="26" fill="#F1C7A7"/>
    <rect x="-47" y="414" width="46" height="36" fill="#F1C7A7"/>
    <rect x="-47" y="406" width="46" height="15" fill="#20160F"/>

    <ellipse cx="76" cy="560" rx="30" ry="12" fill="black" fill-opacity="0.16"/>
    <rect x="60" y="495" width="13" height="45" fill="#524D77"/>
    <rect x="80" y="495" width="13" height="45" fill="#524D77"/>
    <rect x="54" y="450" width="45" height="45" fill="#91E0A0"/>
    <rect x="50" y="454" width="7" height="26" fill="#EFD0BF"/>
    <rect x="101" y="454" width="7" height="26" fill="#EFD0BF"/>
    <rect x="56" y="414" width="46" height="36" fill="#EFD0BF"/>
    <rect x="56" y="406" width="46" height="15" fill="#20160F"/>
  </g>

  <rect x="1000" y="70" width="220" height="176" rx="22" fill="#101B24" stroke="white" stroke-opacity="0.06"/>
  <text x="1028" y="108" fill="#FFBC57" font-family="Trebuchet MS, sans-serif" font-size="16" letter-spacing="3">NEARBY STATION</text>
  <text x="1028" y="148" fill="#F1F7FA" font-family="Gill Sans, Trebuchet MS, sans-serif" font-size="30" font-weight="700">Steam Wand</text>
  <text x="1028" y="182" fill="#9AB1BC" font-family="Trebuchet MS, sans-serif" font-size="18">Steam milk, build foam,</text>
  <text x="1028" y="208" fill="#9AB1BC" font-family="Trebuchet MS, sans-serif" font-size="18">or polish microfoam.</text>

  <rect x="1028" y="278" width="164" height="54" rx="16" fill="#111E28" stroke="white" stroke-opacity="0.06"/>
  <text x="1050" y="312" fill="#F1F7FA" font-family="Gill Sans, Trebuchet MS, sans-serif" font-size="24" font-weight="700">1. Steam Milk</text>
  <rect x="1028" y="344" width="164" height="54" rx="16" fill="#111E28" stroke="white" stroke-opacity="0.06"/>
  <text x="1050" y="378" fill="#F1F7FA" font-family="Gill Sans, Trebuchet MS, sans-serif" font-size="24" font-weight="700">2. Top Foam</text>

  <rect x="1000" y="448" width="220" height="162" rx="22" fill="#101B24" stroke="white" stroke-opacity="0.06"/>
  <text x="1028" y="486" fill="#FFBC57" font-family="Trebuchet MS, sans-serif" font-size="16" letter-spacing="3">ORDER QUEUE</text>
  <text x="1028" y="526" fill="#F1F7FA" font-family="Gill Sans, Trebuchet MS, sans-serif" font-size="28" font-weight="700">Front: Mia</text>
  <text x="1028" y="558" fill="#9AB1BC" font-family="Trebuchet MS, sans-serif" font-size="18">Classic Cappuccino</text>
  <rect x="1028" y="579" width="160" height="10" rx="5" fill="#223745"/>
  <rect x="1028" y="579" width="104" height="10" rx="5" fill="url(#gold)"/>
  <text x="1028" y="628" fill="#F1F7FA" font-family="Gill Sans, Trebuchet MS, sans-serif" font-size="28" font-weight="700">Queue: Theo</text>
  <text x="1028" y="660" fill="#9AB1BC" font-family="Trebuchet MS, sans-serif" font-size="18">Flat White</text>

  <rect x="70" y="694" width="190" height="64" rx="18" fill="url(#gold)"/>
  <text x="102" y="735" fill="#261307" font-family="Gill Sans, Trebuchet MS, sans-serif" font-size="28" font-weight="700">Start Shift</text>
</svg>
